<mxfile host="app.diagrams.net" agent="Mozilla/5.0 (Windows NT 10.0; Win64; x64) AppleWebKit/537.36 (KHTML, like Gecko) Chrome/136.0.0.0 Safari/537.36" version="27.0.8">
  <diagram name="Page-1" id="0uw_rId0XEAOBIqvTX1-">
    <mxGraphModel dx="786" dy="451" grid="1" gridSize="10" guides="1" tooltips="1" connect="1" arrows="1" fold="1" page="1" pageScale="1" pageWidth="827" pageHeight="1169" math="0" shadow="0">
      <root>
        <mxCell id="0" />
        <mxCell id="1" parent="0" />
        <mxCell id="jTVWxn3zM5XKf9ZNmavE-56" value="" style="rounded=0;whiteSpace=wrap;html=1;" vertex="1" parent="1">
          <mxGeometry x="200" y="90" width="550" height="310" as="geometry" />
        </mxCell>
        <mxCell id="jTVWxn3zM5XKf9ZNmavE-10" value="" style="edgeStyle=orthogonalEdgeStyle;rounded=0;orthogonalLoop=1;jettySize=auto;html=1;" edge="1" parent="1" source="jTVWxn3zM5XKf9ZNmavE-1" target="jTVWxn3zM5XKf9ZNmavE-9">
          <mxGeometry relative="1" as="geometry" />
        </mxCell>
        <mxCell id="jTVWxn3zM5XKf9ZNmavE-1" value="" style="verticalLabelPosition=bottom;html=1;verticalAlign=top;align=center;strokeColor=none;fillColor=#00BEF2;shape=mxgraph.azure.user;" vertex="1" parent="1">
          <mxGeometry x="60" y="195" width="47.5" height="50" as="geometry" />
        </mxCell>
        <mxCell id="jTVWxn3zM5XKf9ZNmavE-22" value="" style="edgeStyle=orthogonalEdgeStyle;rounded=0;orthogonalLoop=1;jettySize=auto;html=1;" edge="1" parent="1" source="jTVWxn3zM5XKf9ZNmavE-2" target="jTVWxn3zM5XKf9ZNmavE-21">
          <mxGeometry relative="1" as="geometry" />
        </mxCell>
        <mxCell id="jTVWxn3zM5XKf9ZNmavE-2" value="" style="shape=image;verticalLabelPosition=bottom;labelBackgroundColor=default;verticalAlign=top;aspect=fixed;imageAspect=0;image=data:image/png,iVBORw0KGgoAAAANSUhEUgAAACgAAAAoCAIAAAADnC86AAAAAXNSR0IArs4c6QAAAERlWElmTU0AKgAAAAgAAYdpAAQAAAABAAAAGgAAAAAAA6ABAAMAAAABAAEAAKACAAQAAAABAAAAKKADAAQAAAABAAAAKAAAAAB65masAAAEe0lEQVRYCe1XXUybVRhe6S/9g379Ebp1bVkFHMKKIIiCFzISYuZ0P15sRpdlRhdNvNvUXZjoxWKMiTdLdEv8jbuYiRfORZeM6BwOBhuyjQ3WzY4WKFD6B/3/r482IV/a7xyoErlZ812833ve53nOOd/7vueUd+xr3Yb1+JWth+jfmg+E/7edX7etFqxmiSr5ZqOubZOmWa0ww5aKVUKBVMiXpDLxVDoaTQQC4SlfaHLGO+pcGIa9Gk6asERU0Vb7itW8R16unXQPTntG/py96A85Iwk/9KAKbcxAJmYYhVGjtDxi6H229f1wzHN98vvhu9/Ek0uUGfBIddxed3C79ehd1y9X733rXBjK5bIUluUhHq/MqGtvffiluo3dfdc/GrJ9uTxUYHCvuKf5mKX66ZM/7/AG7QUA+ivm53AP4tEot+ztPKGUVl8YPc4J4U6ujvpDpy8eLFWVLQDs6V8PgIftZNvcwsiXbutRfpmQHVqSDewz246Ah4Ti3mp/yLFZ2/rWzt8uj58cc/wQSy6S8MV+pGST6fmntr6ezWXBUxyQ9xCFb0+dQxp3Nby53fo28FOea+7FCV/IEYrOYx2pTCyTTWFZQn45qkshrWLkxirVVoO2BSVnn7t05tLhTZrH9ExjycKMwjRk++pM/+EyHh8VbNC2gshas7dCtlEkkImFMkhCPpGKJNORpYjLG7yP73rr2llUczaXgV6Tebc/7CxROOzE3PMYsGC5eEgUJD+Ke8b7B2mUO7mwt1gxCQO/rrJu95OfUHYSMWCgfGOCcNiJ+VKE22sPtFj2v9DxMeqVFIavXvJWx5PBdCYpk2gicS8n7+CdL3g8fiIdfq33R6dneGD81KR7gB0pk6hzuQx42E62ze/aJWO/L9uPGndMe0eC0bllD9uIJvw2Vx+y98qdz0UCaU/zO4/XvowA5Fcmm4SBDH+i/hDaH5IDwWxs3iYKb6nqxGHgDkwUY9iebC7t8t1AT/aG7I2mnc+1HddWWFLpmEpuQL3ZZvpe7DyBgOIji7uOQY3Po5ab2BoUO7chZ5/rxyOXaJvMu3qa39WrG+cD4/b5/lH7d93WI/fP/14A504uBCEhVdT8KiDKv4bjnoGJU5/+1DvmOOtetD1UWV8pN1y+/VlxMHHFaFItln3FgFV6KmT6C6Mf4pgixVNXLKdVFIkx72fkpkCI2LYQQxRGTy4XV+KOQRfgHBXwxcCSKiIPIQojXxbD07hhcVLTnWgdwIKBEkYUBgafmd44SbzoepRmmUfRhAP/XthEaZYrC/tW6tjEFaNLk68AKwsDrFbUkNgpfkZp/k/CuJ1XMw1dDW+gG1Nk2EOogo76V/VMk9Nzle0vton36nwo7jG9Le/VVHXiau3y35z13US6xpJL8VQwmYqIhDKJUCkRKZH8OJv16m0mXbtj4cr5kQ88S/eKxdieFYTzoTjjcE0HdTXTiO7/j5gC/yHwfyKeDGESmM2s/9acf8yxMEQ6SdmqsFclXIBZk1daOa2JAInkgTBpZ9bcv25b/Rcsnu5g5PQ7KQAAAABJRU5ErkJggg==;" vertex="1" parent="1">
          <mxGeometry x="250" y="200" width="40" height="40" as="geometry" />
        </mxCell>
        <mxCell id="jTVWxn3zM5XKf9ZNmavE-3" value="" style="shape=image;verticalLabelPosition=bottom;labelBackgroundColor=default;verticalAlign=top;aspect=fixed;imageAspect=0;image=data:image/png,iVBORw0KGgoAAAANSUhEUgAAACgAAAAoCAIAAAADnC86AAAAAXNSR0IArs4c6QAAAERlWElmTU0AKgAAAAgAAYdpAAQAAAABAAAAGgAAAAAAA6ABAAMAAAABAAEAAKACAAQAAAABAAAAKKADAAQAAAABAAAAKAAAAAB65masAAAEe0lEQVRYCe1XXUybVRhe6S/9g379Ebp1bVkFHMKKIIiCFzISYuZ0P15sRpdlRhdNvNvUXZjoxWKMiTdLdEv8jbuYiRfORZeM6BwOBhuyjQ3WzY4WKFD6B/3/r482IV/a7xyoErlZ812833ve53nOOd/7vueUd+xr3Yb1+JWth+jfmg+E/7edX7etFqxmiSr5ZqOubZOmWa0ww5aKVUKBVMiXpDLxVDoaTQQC4SlfaHLGO+pcGIa9Gk6asERU0Vb7itW8R16unXQPTntG/py96A85Iwk/9KAKbcxAJmYYhVGjtDxi6H229f1wzHN98vvhu9/Ek0uUGfBIddxed3C79ehd1y9X733rXBjK5bIUluUhHq/MqGtvffiluo3dfdc/GrJ9uTxUYHCvuKf5mKX66ZM/7/AG7QUA+ivm53AP4tEot+ztPKGUVl8YPc4J4U6ujvpDpy8eLFWVLQDs6V8PgIftZNvcwsiXbutRfpmQHVqSDewz246Ah4Ti3mp/yLFZ2/rWzt8uj58cc/wQSy6S8MV+pGST6fmntr6ezWXBUxyQ9xCFb0+dQxp3Nby53fo28FOea+7FCV/IEYrOYx2pTCyTTWFZQn45qkshrWLkxirVVoO2BSVnn7t05tLhTZrH9ExjycKMwjRk++pM/+EyHh8VbNC2gshas7dCtlEkkImFMkhCPpGKJNORpYjLG7yP73rr2llUczaXgV6Tebc/7CxROOzE3PMYsGC5eEgUJD+Ke8b7B2mUO7mwt1gxCQO/rrJu95OfUHYSMWCgfGOCcNiJ+VKE22sPtFj2v9DxMeqVFIavXvJWx5PBdCYpk2gicS8n7+CdL3g8fiIdfq33R6dneGD81KR7gB0pk6hzuQx42E62ze/aJWO/L9uPGndMe0eC0bllD9uIJvw2Vx+y98qdz0UCaU/zO4/XvowA5Fcmm4SBDH+i/hDaH5IDwWxs3iYKb6nqxGHgDkwUY9iebC7t8t1AT/aG7I2mnc+1HddWWFLpmEpuQL3ZZvpe7DyBgOIji7uOQY3Po5ab2BoUO7chZ5/rxyOXaJvMu3qa39WrG+cD4/b5/lH7d93WI/fP/14A504uBCEhVdT8KiDKv4bjnoGJU5/+1DvmOOtetD1UWV8pN1y+/VlxMHHFaFItln3FgFV6KmT6C6Mf4pgixVNXLKdVFIkx72fkpkCI2LYQQxRGTy4XV+KOQRfgHBXwxcCSKiIPIQojXxbD07hhcVLTnWgdwIKBEkYUBgafmd44SbzoepRmmUfRhAP/XthEaZYrC/tW6tjEFaNLk68AKwsDrFbUkNgpfkZp/k/CuJ1XMw1dDW+gG1Nk2EOogo76V/VMk9Nzle0vton36nwo7jG9Le/VVHXiau3y35z13US6xpJL8VQwmYqIhDKJUCkRKZH8OJv16m0mXbtj4cr5kQ88S/eKxdieFYTzoTjjcE0HdTXTiO7/j5gC/yHwfyKeDGESmM2s/9acf8yxMEQ6SdmqsFclXIBZk1daOa2JAInkgTBpZ9bcv25b/Rcsnu5g5PQ7KQAAAABJRU5ErkJggg==;" vertex="1" parent="1">
          <mxGeometry x="530" y="265" width="40" height="40" as="geometry" />
        </mxCell>
        <mxCell id="jTVWxn3zM5XKf9ZNmavE-39" style="edgeStyle=orthogonalEdgeStyle;rounded=0;orthogonalLoop=1;jettySize=auto;html=1;startArrow=block;startFill=1;" edge="1" parent="1" source="jTVWxn3zM5XKf9ZNmavE-4" target="jTVWxn3zM5XKf9ZNmavE-5">
          <mxGeometry relative="1" as="geometry" />
        </mxCell>
        <mxCell id="jTVWxn3zM5XKf9ZNmavE-4" value="" style="shape=image;verticalLabelPosition=bottom;labelBackgroundColor=default;verticalAlign=top;aspect=fixed;imageAspect=0;image=data:image/png,iVBORw0KGgoAAAANSUhEUgAAACgAAAAoCAIAAAADnC86AAAAAXNSR0IArs4c6QAAAERlWElmTU0AKgAAAAgAAYdpAAQAAAABAAAAGgAAAAAAA6ABAAMAAAABAAEAAKACAAQAAAABAAAAKKADAAQAAAABAAAAKAAAAAB65masAAAFkElEQVRYCe1Wa0yTZxReoaWlLVDut3EXIU4QEFcHMnFDAQdqJg7iMs22bMvisv2ZS2ZitgWniZkkzjGniWZuyzZUnCC4qYsbyK0DEbBys61CaaU3KG3pBQrswQ+a0n5tcWHzx/x+lPOe75zzcM55zvleCuXnI089jsftcYDOYj4B/s8q//8rNXWRtY1jc4oi4vNCY2JYPsEMpmZyQmLQ1cuHqiSCP+TiRQaxNnMNDJjSpMzCsLhz4v6D3bxezYjMqPemeUQyvTaFRJelZhunzHs76huUEuu4LmV3SlGuE6Nn/UJ+zy7iqYaLm2suSgQi3di4edKPztCaJ8V6LcBOCrsgn0jPcXdza1JKnYSyeeUsY6BWZ217s/VqrVTEcKd+sDytJDIh1TdIPWHyonnIjfpqqbCs72bFYF+DQlKVtc2L6vEJv8kGwNHRITAqfD6zkEAFWGXmFpFOva+rAVlOTk8jXIKX7xuxSfy83VAeu3srr66yJWfn7THleXG/IzBrPcXRrj65ZqPKZPy46wZQr6zf/im/6bigc8ba9aGc7hf8HTf/x4GeA908yL+s25pQe1o/ZbYztFWQz3Es2wdsOtTDQ4WRKwr4taATlN4VvSKA7knEeCksFkd0fXP9hQ8T1zwf+HTbiKxOPrQnPsUWhOxMDrwjYvlZcR9m5p24ZFT4G0EnfPc/s/aVyATwmYiT7ht8JDUb03V/XIPCHExeB/0JYSdsyIBsdeTASK5GKoIt2PR5N4+o8GWp6P3260iRiPHZneav+m8pJww4nhB2LWNzMGCNSmkU0xv8sMWxO5MDIw/MqzuFggbfUMwNKLpoQbVgD4xrIE/PzNQrhrj+oRAEOnU0y8cOyFZBDox/GVvCn+45OmEyz8xy2OUzbNQTicLxn2eM7qKXxK9LSMIAkw17yHDEiLv0Is9YatChYdiFCpMB80pEKQiLDZynNKHZEh7n78Eg5FROILoDGY6oNqF08ksOjIZtDImCW7VE+HrsSsJ/3woulpcFe2t43NHUDUQ7V/sGB9KZbaMyzCH2l9I0yzjnDznwxSFBcWQiPMv62vYsS0FcyJckwiAGk02dG6eVPgHXZANgtYeb+2lu7uHeVjCrJDLx1D2+c0jiLflHAlxFoppJE8YDa6g0ObP2wT0M2CWpSD1pIjzBdhwNU+Yv0zawqDRMmg+N/j03/63Wq1rzbLOdP+QZY3D3dtR9kbI+zJN9tL/97GBfZ+6ut+OSKQuDpfkGtW56NcHbb3tDNRb48fQcJpUW6slaaEV+crirYf5R4pqiiOX5dZWqCWN2UAR2UzTLu14hGTaMg8MY8RAG83BPa7mgA6iHkrOSOQGnRfzy1S9ua6hqUT0gB5zXOgOGzYGkzOLIhOKmmvZROY4AxpbAmGJywOG/RobRVw6NjlwxRS83VJump3JDos9w83Y0XbJsnnmsBX/Je2wxuS4Xy4zj33LzVnEC5Sb9HY2KP6bEvaBDrRgy6KJY3u8uW/XD2s0g2n5+I39MBUehTn1zVFaRUdCult8bn9uvloAWwUXGhB248158Cnge7sm+qx21XH04HoxTotv4cIUxWLgyvMb79drwAOGSFRh+LqNwN++3K8P3LWDWwqKALQ4gDtZ4EJ2J7LElrDdURkDYhcwtJc21f87f/db6h+LzDJIT3xtLEEJwUWoba93Dq1avdgQXLly+rN9Cg5ajwqDVoF6LV+hFnUL803MF3RqV/S4jHyfriIuXse92tlzGhQm5El64GhQ1Vh9Le8E+yFICI/p12SD6igrjGkSAYRRBEXvgRyu1vb+9Bqzu046gwi2q2dvuGW5+xWBvnWLIxvLRyGXj7OSYHxqDTcKm0srvdpR2t2DcbYz/LWAbGPvjEvfYHsCR5gmwo8osuf6xlfpvzAF+wxgPP0gAAAAASUVORK5CYII=;" vertex="1" parent="1">
          <mxGeometry x="450" y="290" width="40" height="40" as="geometry" />
        </mxCell>
        <mxCell id="jTVWxn3zM5XKf9ZNmavE-40" style="edgeStyle=orthogonalEdgeStyle;rounded=0;orthogonalLoop=1;jettySize=auto;html=1;entryX=0.5;entryY=0;entryDx=0;entryDy=0;" edge="1" parent="1" source="jTVWxn3zM5XKf9ZNmavE-5" target="jTVWxn3zM5XKf9ZNmavE-3">
          <mxGeometry relative="1" as="geometry" />
        </mxCell>
        <mxCell id="jTVWxn3zM5XKf9ZNmavE-41" style="edgeStyle=orthogonalEdgeStyle;rounded=0;orthogonalLoop=1;jettySize=auto;html=1;entryX=0.5;entryY=1;entryDx=0;entryDy=0;" edge="1" parent="1" source="jTVWxn3zM5XKf9ZNmavE-5" target="jTVWxn3zM5XKf9ZNmavE-6">
          <mxGeometry relative="1" as="geometry" />
        </mxCell>
        <mxCell id="jTVWxn3zM5XKf9ZNmavE-5" value="" style="shape=image;verticalLabelPosition=bottom;labelBackgroundColor=default;verticalAlign=top;aspect=fixed;imageAspect=0;image=data:image/png,iVBORw0KGgoAAAANSUhEUgAAACgAAAAoCAIAAAADnC86AAAAAXNSR0IArs4c6QAAAERlWElmTU0AKgAAAAgAAYdpAAQAAAABAAAAGgAAAAAAA6ABAAMAAAABAAEAAKACAAQAAAABAAAAKKADAAQAAAABAAAAKAAAAAB65masAAAD5klEQVRYCe1WSUwUQRSd6h66e1h1Im5RI0aJSxwTSRAVZHE5uBwUPLjEKEaMccO4JiaeTBRBJJEQXC4koicTLyoHcWYUkIhoVBQ0GBXXGAFRkeqe7ml/z5CheuhtxMjFSh9+vfr/v1/Vv3591LnPNiyDGhZWIP1P/M9OftiO2m66xeiVRVzOIU0138tbPyqXai6ZgubEKNrZe2Uz31QV7guhhMPP7Unp4uu68CUL8yEctSxjdwmXfcACi4aKBWKENOwCEN98yT4plU5M1lMwwC0QG1iLPF9XzmXtN1DRW7JGLMt69rihknHlUrGj9RT0cHNi+VdXzPoqZ6kc/OIKakhfsMo/vMym7yJBKzKK7JFAVMKRtt7Lm8S3jSHvlDMpvrCx53iSLPwKgaaC+Y5VLmQ/9pwOu9b+rtdiu5tN3aLSNJtESGyzCU1V9snz6cRppGclmsx9NhSBtwhUFSaEZBHz9RVhmSx2NPm/vWdca8hojOUIiKNXnIjJrQB3uL6CceWh2ETSdZ+7mMuKoJhYJUaOkWzaNmZOHjVigtzbyT+6wqXvJol9rTcQF2+fkkGCBrJVYi5jl/DkKm68ENwW9pSyC7YjJnrANVRQT4kj++AAYihZIgYCduFO7C7mvWVsykYUMyqQyR42NZ90zjdX0xNT6NHTSVBPtkTMztsqvvJKX9v9P78oh5xZCO4gDiWTKXrANVTQu1YrqAViyg453Fd7Mkig8KUVwO8U3z2QujugXg4QQzRQQWevpuLGkKCmbE7Mzl0nfXkhfXgUtPd3dwit19kFO2CqBKHOZLmvm39YzWao8u6PiBHicg7j2hOkMa4t4hbttdGMr+0m/P6oqVmqVe8ZyH/ExJDgYNlkx1EzV8r8T1+7R2XpF/uLVH8voMpkf9cbpYLOy1eZDJqYEDsWH8G3i8Ks4JdD8bJJAuDwNNHjXPTYWaQOvj0o78jlgGxEDNUAGi6h5RppBYnDzFmL68r7QUnAdWfDGiDxfbP0+ZmzRISXdOTxTtI8JBs1e4HtnrKpuwA2Yw90PPAMh1zwDedGHG3vix/v//4xBP64uCooO0t8IZAUdHdMj3fR42YDB6mN2DgubRv2lpKgjHugB1XSLZKhS+yAZPaesUmqeNn5BUJbDdyoMAp8pwyyCcIKww2m2sTQVNiTl/D3zqssaYZbVIjdp1RgYAJvotB6E8IavKSHaBM7sg/wDZWy0EuasSkbpI+PpU8tJBiSlWKiXO6oEGIsaCdX1IzllHOyY9kxlbHIf6/IViHERPr0VOy47yxW7hg5yDQk8QibPdJ0aLL2UQ/NpyXr/8SWjulvKA3bUf8Gdf9iMmaslNIAAAAASUVORK5CYII=;" vertex="1" parent="1">
          <mxGeometry x="450" y="200" width="40" height="40" as="geometry" />
        </mxCell>
        <mxCell id="jTVWxn3zM5XKf9ZNmavE-6" value="" style="shape=image;verticalLabelPosition=bottom;labelBackgroundColor=default;verticalAlign=top;aspect=fixed;imageAspect=0;image=data:image/png,iVBORw0KGgoAAAANSUhEUgAAACgAAAAoCAIAAAADnC86AAAAAXNSR0IArs4c6QAAAERlWElmTU0AKgAAAAgAAYdpAAQAAAABAAAAGgAAAAAAA6ABAAMAAAABAAEAAKACAAQAAAABAAAAKKADAAQAAAABAAAAKAAAAAB65masAAAFtElEQVRYCe1XW2wUVRjemdmd2cvsHbrttt22FMpNVEABIVFEId7iEwkJSNREBVQSjBCiJPhgUBJBHkDFiJc+aEx8kJCAPphIjVURLDQGt5Sybbdlu0u33ft1dnb81m2302XPbBNRXpic7J45c/7/+89/vv//z6HOzetW3Y6Hvh2gBcw7wP+b52+bq9VVl8jVs5a1Rv5ePetk1Ta1xsowJkaMicK4mBvPZX3ZeHcy3BHLDGWrqpJPUAI23KVr3FOnX6iLnotHf4unvh4XQrlcSAQqY2Q0NgZ2aF0sv8zgfNlxdccALJCrVu5TpDi2rjc3veUcPuwfOxWWRImkRW1VO7baaY6W8pJKNkvKSf7PgzCRJEjc46Z9zt6XBoLfhhRQobThNYd+gQ4A+UQ+n5xokiA5d9TQWqJyCBJdzTo1FEOR7C2Oc42sbYO5e8MVMTptZeYHjfGLSWFUUBBXMqrteFPNJhvFEuHrdzr87cEyVIDZHjOPfxdRQMUnIjA87N7isTxsWtq5qO3j5trnZ5ke4PULtKxDU/ShrpUzrzEG2oNlAJSasj5iGv++CjDR1VCXHsj0bh8AdaHIsEhn3WBmZ2sYvmBr16q/6nfVjpy4ISbzZcCwT0VRji324jgcHvhyrGwOXsnAkkozW7Pwq9axUyHfhzdGvxmXCxsW6/h79J7dXvlgsZ/2ZPxfjAKbolW1z86KdMYrAjMv2nfcLIwR0wqeMdC+owFdmxZBXDan5e0GSVCxtRrTKt5wtz7eNRXBYHjsfALN/pRFykpXdw6qpjFvQhNxjxGFjbvrmvbXJ7qTlKacX2NnwpGfY5Koog2Mc3vNzVSBLDIPsgqwy4wuvhJd3fB6bd8uL81SddtrWg+7kj3p5JVUNiCEf4ylrqaRVYryticsXAOrmr7Rzm015rXGni3XbmZAyQgisH6+FmvNXM8GT4bUZkY7h+NcHBIk+iVhdMxr+EhnTD5Ss9k+a6PNvbkvF6nk4smpRGBMmP9pi+eNIaQCqMAv2qTU1L9pNT/yyWjp3f60Bct1b74mjOZKgxU7RGDEsffgSOshF1Cxpuiv8dSVdC4syjOotpmDUkRdUbVlncm1t8691QM/VQSTDxKBMSl8NhruiBrvM6Bg1L/qgPMZnslFC9UJ2bR7XQ+WG/1lgvCgd8uBht4X+hFOcgBSXwkYqWPesSbssfegr0gfmqNQEGkdjeKDcoQNHjtdyFCIqNYjrr6dgwU2IQIqE3maDcRwSvVlTCsN148GkChKpM1nJCGYQ83PjggUTRlX8NgCBHrbR82evUMwCLSYCSpMIAKjEiOKrI+arn8QmGbq5IthiS4znGWM9PwTLYMHfNgIwA8f8U9+r/JPPAgsaJ8Tu5BAHM/eZM/6hdjv8ZQnAyQxLhYW7c06X3HoWjh+qd53vJBQwSzdXA5V8vLGviqY/3wmAt/vXnJxtTsXyoFHWBzON7o5HIo0Y2BSfen+fcNI40Ades/v/2winODq5V2L/1h2OZ+anlAqGUIkF/Ba33d59nixvvilJJpcHBg4/o0cv1FCRWJpebcRUqgNM3mIwCAUasOS023IkUjLOO/Jc0I+k+9/c7iQ1GxqBJJ5NW9db0IVKtTEmT1Krj6/8E/otT9uRiXWL9KpREkIiXA+jhwIKrWFwUkPJEi4U+EfomNnIii9yy8svvSQW0z8C1fDbqSL5v3O4Mlwz3MeBAmKICo0DgKMnhZTeTGeF4JC1qd0sFJYPNHVQiAHlobPxhzP2MM/RQEMbqMp6EIGlfIqhYoklyUyAaE591gT0lDvtoFSApFLyvvglP1JCyLQ+45vhgmEuMfQW36T6ElP3SR4GhuMpm/TmlYZjCv5dH9m6JA/3pWQG6TQVwIuik3dnepZIOHmAmZhg3Fxgh3YY9xcIh3R9GD1iiS3ozqwfPYt7BP3+BZiVFR1B7iiW/6Lwb8BdKSTBI5rNK0AAAAASUVORK5CYII=;" vertex="1" parent="1">
          <mxGeometry x="530" y="130" width="40" height="40" as="geometry" />
        </mxCell>
        <mxCell id="jTVWxn3zM5XKf9ZNmavE-11" value="" style="edgeStyle=orthogonalEdgeStyle;rounded=0;orthogonalLoop=1;jettySize=auto;html=1;startArrow=blockThin;startFill=1;" edge="1" parent="1" source="jTVWxn3zM5XKf9ZNmavE-9" target="jTVWxn3zM5XKf9ZNmavE-2">
          <mxGeometry relative="1" as="geometry" />
        </mxCell>
        <mxCell id="jTVWxn3zM5XKf9ZNmavE-9" value="" style="verticalLabelPosition=bottom;aspect=fixed;html=1;shape=mxgraph.salesforce.web;" vertex="1" parent="1">
          <mxGeometry x="160" y="196.3" width="60" height="47.400000000000006" as="geometry" />
        </mxCell>
        <mxCell id="jTVWxn3zM5XKf9ZNmavE-23" value="" style="edgeStyle=orthogonalEdgeStyle;rounded=0;orthogonalLoop=1;jettySize=auto;html=1;" edge="1" parent="1" source="jTVWxn3zM5XKf9ZNmavE-21" target="jTVWxn3zM5XKf9ZNmavE-5">
          <mxGeometry relative="1" as="geometry" />
        </mxCell>
        <mxCell id="jTVWxn3zM5XKf9ZNmavE-21" value="" style="shape=image;verticalLabelPosition=bottom;labelBackgroundColor=default;verticalAlign=top;aspect=fixed;imageAspect=0;image=data:image/png,iVBORw0KGgoAAAANSUhEUgAAACgAAAAoCAIAAAADnC86AAAAAXNSR0IArs4c6QAAAERlWElmTU0AKgAAAAgAAYdpAAQAAAABAAAAGgAAAAAAA6ABAAMAAAABAAEAAKACAAQAAAABAAAAKKADAAQAAAABAAAAKAAAAAB65masAAAEe0lEQVRYCe1XXUybVRhe6S/9g379Ebp1bVkFHMKKIIiCFzISYuZ0P15sRpdlRhdNvNvUXZjoxWKMiTdLdEv8jbuYiRfORZeM6BwOBhuyjQ3WzY4WKFD6B/3/r482IV/a7xyoErlZ812833ve53nOOd/7vueUd+xr3Yb1+JWth+jfmg+E/7edX7etFqxmiSr5ZqOubZOmWa0ww5aKVUKBVMiXpDLxVDoaTQQC4SlfaHLGO+pcGIa9Gk6asERU0Vb7itW8R16unXQPTntG/py96A85Iwk/9KAKbcxAJmYYhVGjtDxi6H229f1wzHN98vvhu9/Ek0uUGfBIddxed3C79ehd1y9X733rXBjK5bIUluUhHq/MqGtvffiluo3dfdc/GrJ9uTxUYHCvuKf5mKX66ZM/7/AG7QUA+ivm53AP4tEot+ztPKGUVl8YPc4J4U6ujvpDpy8eLFWVLQDs6V8PgIftZNvcwsiXbutRfpmQHVqSDewz246Ah4Ti3mp/yLFZ2/rWzt8uj58cc/wQSy6S8MV+pGST6fmntr6ezWXBUxyQ9xCFb0+dQxp3Nby53fo28FOea+7FCV/IEYrOYx2pTCyTTWFZQn45qkshrWLkxirVVoO2BSVnn7t05tLhTZrH9ExjycKMwjRk++pM/+EyHh8VbNC2gshas7dCtlEkkImFMkhCPpGKJNORpYjLG7yP73rr2llUczaXgV6Tebc/7CxROOzE3PMYsGC5eEgUJD+Ke8b7B2mUO7mwt1gxCQO/rrJu95OfUHYSMWCgfGOCcNiJ+VKE22sPtFj2v9DxMeqVFIavXvJWx5PBdCYpk2gicS8n7+CdL3g8fiIdfq33R6dneGD81KR7gB0pk6hzuQx42E62ze/aJWO/L9uPGndMe0eC0bllD9uIJvw2Vx+y98qdz0UCaU/zO4/XvowA5Fcmm4SBDH+i/hDaH5IDwWxs3iYKb6nqxGHgDkwUY9iebC7t8t1AT/aG7I2mnc+1HddWWFLpmEpuQL3ZZvpe7DyBgOIji7uOQY3Po5ab2BoUO7chZ5/rxyOXaJvMu3qa39WrG+cD4/b5/lH7d93WI/fP/14A504uBCEhVdT8KiDKv4bjnoGJU5/+1DvmOOtetD1UWV8pN1y+/VlxMHHFaFItln3FgFV6KmT6C6Mf4pgixVNXLKdVFIkx72fkpkCI2LYQQxRGTy4XV+KOQRfgHBXwxcCSKiIPIQojXxbD07hhcVLTnWgdwIKBEkYUBgafmd44SbzoepRmmUfRhAP/XthEaZYrC/tW6tjEFaNLk68AKwsDrFbUkNgpfkZp/k/CuJ1XMw1dDW+gG1Nk2EOogo76V/VMk9Nzle0vton36nwo7jG9Le/VVHXiau3y35z13US6xpJL8VQwmYqIhDKJUCkRKZH8OJv16m0mXbtj4cr5kQ88S/eKxdieFYTzoTjjcE0HdTXTiO7/j5gC/yHwfyKeDGESmM2s/9acf8yxMEQ6SdmqsFclXIBZk1daOa2JAInkgTBpZ9bcv25b/Rcsnu5g5PQ7KQAAAABJRU5ErkJggg==;" vertex="1" parent="1">
          <mxGeometry x="350" y="200" width="40" height="40" as="geometry" />
        </mxCell>
        <mxCell id="jTVWxn3zM5XKf9ZNmavE-24" value="front-end bucket" style="text;html=1;align=center;verticalAlign=middle;resizable=0;points=[];autosize=1;strokeColor=none;fillColor=none;" vertex="1" parent="1">
          <mxGeometry x="220" y="170" width="110" height="30" as="geometry" />
        </mxCell>
        <mxCell id="jTVWxn3zM5XKf9ZNmavE-26" value="Original Bucket" style="text;html=1;align=center;verticalAlign=middle;resizable=0;points=[];autosize=1;strokeColor=none;fillColor=none;" vertex="1" parent="1">
          <mxGeometry x="320" y="170" width="100" height="30" as="geometry" />
        </mxCell>
        <mxCell id="jTVWxn3zM5XKf9ZNmavE-30" value="Web page" style="text;html=1;align=center;verticalAlign=middle;resizable=0;points=[];autosize=1;strokeColor=none;fillColor=none;" vertex="1" parent="1">
          <mxGeometry x="130" y="165" width="80" height="30" as="geometry" />
        </mxCell>
        <mxCell id="jTVWxn3zM5XKf9ZNmavE-36" value="Processed Bucket" style="text;html=1;align=center;verticalAlign=middle;resizable=0;points=[];autosize=1;strokeColor=none;fillColor=none;" vertex="1" parent="1">
          <mxGeometry x="500" y="305" width="120" height="30" as="geometry" />
        </mxCell>
        <mxCell id="jTVWxn3zM5XKf9ZNmavE-43" value="" style="points=[];aspect=fixed;html=1;align=center;shadow=0;dashed=0;fillColor=#FF6A00;strokeColor=none;shape=mxgraph.alibaba_cloud.directmail;" vertex="1" parent="1">
          <mxGeometry x="620" y="205.2" width="52.5" height="34.8" as="geometry" />
        </mxCell>
        <mxCell id="jTVWxn3zM5XKf9ZNmavE-44" style="edgeStyle=orthogonalEdgeStyle;rounded=0;orthogonalLoop=1;jettySize=auto;html=1;entryX=0.076;entryY=0.441;entryDx=0;entryDy=0;entryPerimeter=0;" edge="1" parent="1" source="jTVWxn3zM5XKf9ZNmavE-5" target="jTVWxn3zM5XKf9ZNmavE-43">
          <mxGeometry relative="1" as="geometry" />
        </mxCell>
        <mxCell id="jTVWxn3zM5XKf9ZNmavE-45" value="Image Analytics" style="text;html=1;align=center;verticalAlign=middle;resizable=0;points=[];autosize=1;strokeColor=none;fillColor=none;" vertex="1" parent="1">
          <mxGeometry x="415" y="330" width="110" height="30" as="geometry" />
        </mxCell>
        <mxCell id="jTVWxn3zM5XKf9ZNmavE-48" value="Metadata" style="text;html=1;align=center;verticalAlign=middle;resizable=0;points=[];autosize=1;strokeColor=none;fillColor=none;" vertex="1" parent="1">
          <mxGeometry x="515" y="100" width="70" height="30" as="geometry" />
        </mxCell>
        <mxCell id="jTVWxn3zM5XKf9ZNmavE-50" value="SNS" style="text;html=1;align=center;verticalAlign=middle;resizable=0;points=[];autosize=1;strokeColor=none;fillColor=none;" vertex="1" parent="1">
          <mxGeometry x="620" y="175.2" width="50" height="30" as="geometry" />
        </mxCell>
        <mxCell id="jTVWxn3zM5XKf9ZNmavE-57" value="Cloud" style="text;html=1;align=center;verticalAlign=middle;resizable=0;points=[];autosize=1;strokeColor=none;fillColor=none;" vertex="1" parent="1">
          <mxGeometry x="200" y="60" width="50" height="30" as="geometry" />
        </mxCell>
        <mxCell id="jTVWxn3zM5XKf9ZNmavE-58" value="User" style="text;html=1;align=center;verticalAlign=middle;resizable=0;points=[];autosize=1;strokeColor=none;fillColor=none;" vertex="1" parent="1">
          <mxGeometry x="60" y="165" width="50" height="30" as="geometry" />
        </mxCell>
      </root>
    </mxGraphModel>
  </diagram>
</mxfile>
